<?xml version="1.0" standalone="no"?><svg xmlns="http://www.w3.org/2000/svg" viewBox="0 0 1440 320"><path fill="#ff5500" fill-opacity="1" d="M0,288L18.5,288C36.9,288,74,288,111,240C147.7,192,185,96,222,53.3C258.5,11,295,21,332,64C369.2,107,406,181,443,197.3C480,213,517,171,554,144C590.8,117,628,107,665,133.3C701.5,160,738,224,775,240C812.3,256,849,224,886,181.3C923.1,139,960,85,997,85.3C1033.8,85,1071,139,1108,176C1144.6,213,1182,235,1218,229.3C1255.4,224,1292,192,1329,197.3C1366.2,203,1403,245,1422,266.7L1440,288L1440,320L1421.5,320C1403.1,320,1366,320,1329,320C1292.3,320,1255,320,1218,320C1181.5,320,1145,320,1108,320C1070.8,320,1034,320,997,320C960,320,923,320,886,320C849.2,320,812,320,775,320C738.5,320,702,320,665,320C627.7,320,591,320,554,320C516.9,320,480,320,443,320C406.2,320,369,320,332,320C295.4,320,258,320,222,320C184.6,320,148,320,111,320C73.8,320,37,320,18,320L0,320Z"></path></svg>